<svg xmlns="http://www.w3.org/2000/svg" xmlns:xlink="http://www.w3.org/1999/xlink" width="256" height="60" viewBox="0 0 256 60"><defs><style>.a{clip-path:url(#h);}.b{fill:#fff;}.c{fill:url(#a);}.d{fill:url(#b);}.e{fill:url(#d);}.f{fill:url(#e);}.g{fill:url(#f);}</style><linearGradient id="a" x1="-0.469" y1="0.174" x2="0.446" y2="2.191" gradientUnits="objectBoundingBox"><stop offset="0" stop-color="#fb5a5d"/><stop offset="1" stop-color="#f98a40"/></linearGradient><linearGradient id="b" x1="-0.419" y1="-0.043" x2="0.104" y2="1.057" xlink:href="#a"/><linearGradient id="d" x1="0.5" y1="0.381" x2="0.333" y2="1.577" gradientUnits="objectBoundingBox"><stop offset="0" stop-color="#4191f4"/><stop offset="1" stop-color="#c075c0"/></linearGradient><linearGradient id="e" x1="0.899" y1="-0.607" x2="0.5" y2="1" xlink:href="#d"/><linearGradient id="f" x1="0.113" y1="-0.215" x2="0.558" y2="0.662" xlink:href="#d"/><clipPath id="h"><rect width="256" height="60"/></clipPath></defs><g id="g" class="a"><g transform="translate(-3215 6472)"><g transform="translate(3215 -6471.771)"><g transform="translate(72.884 4.448)"><path class="b" d="M1274.326,98.9a6.1,6.1,0,0,1-6.094-6.092V81.243h7.242V75.635h-7.242V68.3h-5.609V92.815a11.719,11.719,0,0,0,11.7,11.7h1.193V98.907h-1.193Z" transform="translate(-1183.991 -64.553)"/><path class="b" d="M644.448,127.118a11.712,11.712,0,0,0-16.512,1.3,11.679,11.679,0,0,0-20.573,7.59V153.8h5.608V136.011a6.094,6.094,0,0,1,12.186,0V153.8h5.607V136.011a6.092,6.092,0,1,1,12.185,0V153.8h5.608V136.013a11.713,11.713,0,0,0-4.108-8.9" transform="translate(-607.363 -113.842)"/><path class="b" d="M950.633,221.811v0h0Z" transform="translate(-909.44 -199.642)"/><path class="b" d="M996.914,124.981a14.97,14.97,0,1,0,14.922,14.982v-.016a14.914,14.914,0,0,0-14.922-14.966m0,24.328h0a9.36,9.36,0,1,1,9.36-9.36,9.36,9.36,0,0,1-9.36,9.36" transform="translate(-936.957 -114.431)"/><path class="b" d="M1106.993,124.981" transform="translate(-1047.036 -114.431)"/><path class="b" d="M1400.392,124.981a14.968,14.968,0,1,0,14.967,14.969v0a14.981,14.981,0,0,0-14.967-14.966m0,24.328a9.36,9.36,0,1,1,9.36-9.36,9.36,9.36,0,0,1-9.36,9.36" transform="translate(-1292.055 -114.431)"/><path class="b" d="M1812.051,127.521c-2.054-2.11-5.376-3.221-9.612-3.221a25.1,25.1,0,0,0-10.8,2.245l1.6,4.6a20.867,20.867,0,0,1,8.3-1.732c5.047,0,7.826,2.458,7.826,6.92v1.3l-.539-.17a24.407,24.407,0,0,0-7.909-1.225c-3.618,0-6.622.8-8.689,2.31a8.058,8.058,0,0,0-3.288,6.894v.114a8.051,8.051,0,0,0,3.061,6.536,11.512,11.512,0,0,0,7.162,2.272,12.723,12.723,0,0,0,5.639-1.224,11.492,11.492,0,0,0,3.775-2.984l.732-.874v4.46h5.849v-17.3c0-3.918-1.044-6.922-3.1-8.926m-2.579,15.886c0,3.944-3.529,6.808-8.392,6.808-3.733,0-6.241-1.985-6.241-4.94v-.113a4.708,4.708,0,0,1,2.027-3.994,9.337,9.337,0,0,1,5.4-1.4,19.29,19.29,0,0,1,6.939,1.217l.264.1Z" transform="translate(-1647.144 -113.832)"/><rect class="b" width="5.855" height="6.347" transform="translate(177.242)"/><rect class="b" width="5.654" height="29.143" transform="translate(177.461 10.818)"/></g><g transform="translate(0 0)"><g transform="translate(0 9.938)"><path class="c" d="M201.057,102.692q.566-.374,1.158-.717l1.064-.614a9.938,9.938,0,1,0-9.938-17.213l-1.064.614a22.36,22.36,0,0,1-16.326,2.4,27.291,27.291,0,0,1-1.013,4.866,27.329,27.329,0,0,0,19.824-2.959l1.064-.614a4.969,4.969,0,0,1,4.969,8.606l-1.064.614a27.337,27.337,0,0,0-2.606,1.71,22.329,22.329,0,0,0,3.933,3.31" transform="translate(-153.945 -82.816)"/><path class="d" d="M148.394,276.223a20.472,20.472,0,0,0-4.941,1.952v.509a9.938,9.938,0,1,0,19.876,0v-1.229a22.355,22.355,0,0,1,4.866-13.926,29.162,29.162,0,0,1-3.715-3.31,27.325,27.325,0,0,0-6.12,17.236v1.229a4.969,4.969,0,1,1-9.938,0v-1.228q0-.619-.028-1.233" transform="translate(-126.238 -238.931)"/><path class="c" d="M17.173,85.408q-.608-.3-1.2-.645l-1.064-.614a9.938,9.938,0,0,0-9.938,17.213l1.064.614a22.361,22.361,0,0,1,10.238,12.94,27.294,27.294,0,0,1,4.721-1.556A27.33,27.33,0,0,0,8.519,97.672l-1.064-.614a4.969,4.969,0,0,1,4.969-8.606l1.064.614a27.351,27.351,0,0,0,2.784,1.4,22.336,22.336,0,0,0,.9-5.06" transform="translate(0 -82.816)"/></g><path class="e" d="M96.418,29.814A27.271,27.271,0,0,0,92.71,26.5,22.361,22.361,0,0,0,98.8,11.166V9.938a9.938,9.938,0,0,1,19.876,0v1.228q0,.685.042,1.364a22.329,22.329,0,0,1-4.833,1.75,27.345,27.345,0,0,1-.178-3.115V9.938a4.969,4.969,0,0,0-9.938,0v1.228a27.329,27.329,0,0,1-7.35,18.648" transform="translate(-81.585)"/><path class="f" d="M14.908,274.9a9.938,9.938,0,0,1-9.938-17.213l.438-.253a20.475,20.475,0,0,1,4.162,3.3q-.517.33-1.052.639l-1.064.614a4.969,4.969,0,0,0,4.969,8.606l1.064-.614a27.329,27.329,0,0,1,19.824-2.959,27.289,27.289,0,0,0-1.013,4.866,22.36,22.36,0,0,0-16.327,2.4Z" transform="translate(0 -226.538)"/><path class="g" d="M285.878,189.046q.608.3,1.2.645l1.064.614a9.938,9.938,0,1,0,9.938-17.213l-1.064-.614a22.354,22.354,0,0,1-9.626-11.174,29.163,29.163,0,0,1-4.724,1.562,27.327,27.327,0,0,0,11.865,13.916l1.064.614A4.969,4.969,0,0,1,290.626,186l-1.064-.614a27.363,27.363,0,0,0-2.784-1.4,22.322,22.322,0,0,0-.9,5.06" transform="translate(-248.746 -141.948)"/></g></g></g></g></svg>