<svg height="512" width="512" xmlns="http://www.w3.org/2000/svg"><path d="m127.711113 477.5468445c-170.2814331-98.1691284-170.2814941-344.92453-.000061-443.093689s384.288948 25.2085228 384.288948 221.5468445-214.0074463 319.7160034-384.288887 221.5468445zm283.120491-93.7324219h17.7280884l-97.7548218-319.6962356-74.6818237 250.212616s-74.6728058-250.2105865-74.6728058-250.2105865l-97.6917343 319.491272h17.9835739c6.6821747-26.0659485 14.1219177-51.4883118 24.9146881-74.2872314 13.9352417-30.0690691 31.7073822-44.3779986 53.4896698-46.3242571 29.3064728-2.6185608 52.662323 28.0310364 75.9334869 83.2154846 23.8802796-54.25531 45.2387391-84.5086975 74.3917847-83.2154846 26.491394 1.1751404 45.6244507 19.9592285 61.5308533 61.4985046 6.927948 19.5390625 12.717926 39.4849854 18.8290405 59.315918z"/></svg>