<svg xmlns="http://www.w3.org/2000/svg" xmlns:xlink="http://www.w3.org/1999/xlink" width="368" height="212" viewBox="0 0 368 212">
  <defs>
    <clipPath id="clip-path">
      <rect id="Retângulo_13" data-name="Retângulo 13" width="368" height="212" transform="translate(195.1 198.2)"/>
    </clipPath>
    <clipPath id="clip-path-2">
      <rect id="Retângulo_12" data-name="Retângulo 12" width="591.7" height="642.4"/>
    </clipPath>
    <clipPath id="clip-path-4">
      <rect id="Retângulo_2" data-name="Retângulo 2" width="542.4" height="582.4" transform="translate(24.7 23.9)"/>
    </clipPath>
    <clipPath id="clip-path-5">
      <rect id="Retângulo_3" data-name="Retângulo 3" width="493.9" height="524.7" transform="translate(48.9 47.8)"/>
    </clipPath>
    <clipPath id="clip-path-6">
      <rect id="Retângulo_4" data-name="Retângulo 4" width="446.4" height="469.3" transform="translate(72.6 71.6)"/>
    </clipPath>
    <clipPath id="clip-path-7">
      <rect id="Retângulo_5" data-name="Retângulo 5" width="399.8" height="416.1" transform="translate(95.9 95.2)"/>
    </clipPath>
    <clipPath id="clip-path-8">
      <rect id="Retângulo_6" data-name="Retângulo 6" width="354.1" height="365.1" transform="translate(118.8 118.6)"/>
    </clipPath>
    <clipPath id="clip-path-9">
      <rect id="Retângulo_7" data-name="Retângulo 7" width="309.1" height="316" transform="translate(141.3 141.7)"/>
    </clipPath>
    <clipPath id="clip-path-10">
      <rect id="Retângulo_8" data-name="Retângulo 8" width="264.7" height="268.6" transform="translate(163.4 164.5)"/>
    </clipPath>
    <clipPath id="clip-path-11">
      <rect id="Retângulo_9" data-name="Retângulo 9" width="220.9" height="222.8" transform="translate(185.3 187)"/>
    </clipPath>
    <clipPath id="clip-path-12">
      <rect id="Retângulo_10" data-name="Retângulo 10" width="177.6" height="178.3" transform="translate(207 209)"/>
    </clipPath>
    <clipPath id="clip-path-13">
      <rect id="Retângulo_11" data-name="Retângulo 11" width="134.7" height="134.8" transform="translate(228.4 230.7)"/>
    </clipPath>
  </defs>
  <g id="Group_41" transform="translate(-195.1 -198.2)">
    <g id="Grupo_13" data-name="Grupo 13">
      <g id="Group_40" clip-path="url(#clip-path)">
        <g id="Group_39" opacity="0.55">
          <g id="Group_38">
            <g id="Grupo_12" data-name="Grupo 12">
              <g id="Group_37" clip-path="url(#clip-path-2)">
                <g id="Group_6" opacity="0">
                  <g id="Group_5">
                    <g id="Grupo_1" data-name="Grupo 1">
                      <g id="Group_4" clip-path="url(#clip-path-2)">
                        <path id="Path_1" d="M575.7,268.7c-27.6-29.8-80.9-70.8-130.9-118.4C393.5,104.2,345.5,49.4,295.9,18.2c-43.6-27.1-85.4-23.4-130,15.5C110,82.5,47.3,186.8,15.9,327.4-8.1,436-4.4,541.3,31.7,595.3c45,72.8,145.7,54.8,264.1-17.3C382.6,525.7,461.5,458.5,514,407.7c37-36.2,61.4-64.1,71.5-85C595.7,301.4,591.7,287.1,575.7,268.7Z" fill="none" stroke="#315579" stroke-miterlimit="10" stroke-width="1.321"/>
                      </g>
                    </g>
                  </g>
                </g>
                <g id="Group_9" opacity="0.091">
                  <g id="Group_8">
                    <g id="Grupo_2" data-name="Grupo 2">
                      <g id="Group_7" clip-path="url(#clip-path-4)">
                        <path id="Path_2" d="M295.8,39.6c-42.3-23.8-82.6-19.7-124.1,16C119.6,100.4,63.6,195.1,37.3,320.5,17.1,417.4,22.3,510.7,56,560.1c42.1,66.4,133.2,55.6,239.9-3.5,78.2-42.8,149.5-100.2,197.5-145.7,68.5-66.8,88.8-98.9,61-135.3-23.2-31.6-70.6-71.5-116.8-116C390.2,116.5,344,67.1,295.8,39.6Z" fill="none" stroke="#315579" stroke-miterlimit="10" stroke-width="1.407"/>
                      </g>
                    </g>
                  </g>
                </g>
                <g id="Group_12" opacity="0.182">
                  <g id="Group_11">
                    <g id="Grupo_3" data-name="Grupo 3">
                      <g id="Group_10" clip-path="url(#clip-path-5)">
                        <path id="Path_3" d="M295.8,60.9c-40.7-20.6-79.2-16-117.5,16.7C130,118.6,80.4,203.8,58.7,314.7,42,400.4,48.3,482.4,79.4,527.4c39.1,60.1,120.9,55.4,216.3,7.8,70-34.5,133.9-83,177.5-123.4,62.2-59.1,82.6-92.7,59.6-130.5-19.2-32.6-60.9-71.3-103.4-112.5C386.2,128.9,342.1,84.7,295.8,60.9Z" fill="none" stroke="#315579" stroke-miterlimit="10" stroke-width="1.494"/>
                      </g>
                    </g>
                  </g>
                </g>
                <g id="Group_15" opacity="0.273">
                  <g id="Group_14">
                    <g id="Grupo_4" data-name="Grupo 4">
                      <g id="Group_13" clip-path="url(#clip-path-6)">
                        <path id="Path_4" d="M295.8,82.3c-38.7-17.4-75.1-12.2-110.3,17.4C141.1,137,97.6,212.9,80,310c-13.5,75.1-6.3,146.5,22.3,187.1,36,53.9,108.8,54.2,193.5,16.7C357.9,486.6,414.6,446,454,410.5c56-51.8,76.1-86.1,57.6-124.5-15.5-33-52-70.1-90.7-107.9C381.5,141.4,339.9,102.4,295.8,82.3Z" fill="none" stroke="#315579" stroke-miterlimit="10" stroke-width="1.581"/>
                      </g>
                    </g>
                  </g>
                </g>
                <g id="Group_18" opacity="0.364">
                  <g id="Group_17">
                    <g id="Grupo_5" data-name="Grupo 5">
                      <g id="Group_16" clip-path="url(#clip-path-7)">
                        <path id="Path_5" d="M295.8,103.7c-36.4-14.3-70.5-8.7-102.4,18-40.4,33.6-78.1,100.5-92,184.6-10.6,65.1-2.9,126.6,23.1,162.8,32.8,47.9,97,52.1,171.3,23.4,54.5-20.9,104.4-54.3,139.6-85.3,49.9-45,69.5-79.2,54.8-117.4-12.2-32.7-43.7-67.9-78.6-102.2C376.2,154.1,337.3,120.2,295.8,103.7Z" fill="none" stroke="#315579" stroke-miterlimit="10" stroke-width="1.667"/>
                      </g>
                    </g>
                  </g>
                </g>
                <g id="Group_21" opacity="0.455">
                  <g id="Group_20">
                    <g id="Grupo_6" data-name="Grupo 6">
                      <g id="Group_19" clip-path="url(#clip-path-8)">
                        <path id="Path_6" d="M295.8,125c-33.7-11.4-65.2-5.3-93.9,18.5-36.3,30-68.6,88.1-79.2,160-8.1,55.6-.1,107.9,23.3,139.8,29.6,42,85.4,49.2,149.8,27.8,47.3-15.5,90.5-42.6,121.6-69.3,43.9-38.7,62.6-71.9,51.5-109.1-9.3-31.8-36.1-64.7-67.2-95.4C370.1,167.1,334.3,138.2,295.8,125Z" fill="none" stroke="#315579" stroke-miterlimit="10" stroke-width="1.754"/>
                      </g>
                    </g>
                  </g>
                </g>
                <g id="Group_24" opacity="0.545">
                  <g id="Group_23">
                    <g id="Grupo_7" data-name="Grupo 7">
                      <g id="Group_22" clip-path="url(#clip-path-9)">
                        <path id="Path_7" d="M295.8,146.4c-30.7-8.6-59.4-2.3-84.6,18.6-32.1,26.4-59.3,76.1-67,136.4-5.9,46.8,2.1,90.5,22.8,118.2,26.3,36.3,74,45.4,128.9,30.3,40.3-11,77.3-32.5,104.2-55.2,38.1-32.7,55.6-64.4,47.5-99.8-6.8-30.2-29.2-60.5-56.5-87.6C363.4,180.6,330.9,156.4,295.8,146.4Z" fill="none" stroke="#315579" stroke-miterlimit="10" stroke-width="1.841"/>
                      </g>
                    </g>
                  </g>
                </g>
                <g id="Group_27" opacity="0.636">
                  <g id="Group_26">
                    <g id="Grupo_8" data-name="Grupo 8">
                      <g id="Group_25" clip-path="url(#clip-path-10)">
                        <path id="Path_8" d="M295.8,167.8c-27.4-6.1-52.9.2-74.8,18.2-27.9,22.9-50.2,64.3-55.6,113.9-4.1,38.4,3.7,74.2,21.6,97.7,22.8,30.8,62.9,40.9,108.7,30.8,33.7-7.4,64.6-24,87.5-42.9,32.3-27.1,48.4-56.4,42.8-89.2-4.7-28-23-55.3-46.5-78.6C355.9,194.6,327.1,174.9,295.8,167.8Z" fill="none" stroke="#315579" stroke-miterlimit="10" stroke-width="1.927"/>
                      </g>
                    </g>
                  </g>
                </g>
                <g id="Group_30" opacity="0.727">
                  <g id="Group_29">
                    <g id="Grupo_9" data-name="Grupo 9">
                      <g id="Group_28" clip-path="url(#clip-path-11)">
                        <path id="Path_9" d="M295.8,189.1c-23.8-4-45.8,2.2-64.2,17.4-23.5,19.3-41.4,52.9-44.7,92.4-2.5,30.7,4.6,59.1,19.8,78.6,19.3,25.3,52,35.7,89.2,29.5a155.833,155.833,0,0,0,71.5-32.3c26.7-21.9,41-48.1,37.4-77.6-2.9-25.1-17.5-48.9-37.1-68.5C347.8,209.3,322.9,193.8,295.8,189.1Z" fill="none" stroke="#315579" stroke-miterlimit="10" stroke-width="2.014"/>
                      </g>
                    </g>
                  </g>
                </g>
                <g id="Group_33" opacity="0.818">
                  <g id="Group_32">
                    <g id="Grupo_10" data-name="Grupo 10">
                      <g id="Group_31" clip-path="url(#clip-path-12)">
                        <path id="Path_10" d="M295.8,210.5a69.321,69.321,0,0,0-53,15.8c-19.1,15.7-32.8,41.8-34.6,72.1-1.4,23.5,5,45.2,17.3,60.7,15.7,20.1,41.3,29.8,70.3,26.6a110.4,110.4,0,0,0,56.1-23.2c21.2-17,33.3-39.4,31.4-64.7-1.6-21.5-12.6-41.6-28.4-57.4C339,224.7,318.4,213.1,295.8,210.5Z" fill="none" stroke="#315579" stroke-miterlimit="10" stroke-width="2.101"/>
                      </g>
                    </g>
                  </g>
                </g>
                <g id="Group_36" opacity="0.909">
                  <g id="Group_35">
                    <g id="Grupo_11" data-name="Grupo 11">
                      <g id="Group_34" clip-path="url(#clip-path-13)">
                        <path id="Path_11" d="M295.8,231.9a58.592,58.592,0,0,0-41.1,13.5c-14.6,12-24.5,31.1-25.1,52.8-.5,16.9,4.7,32.4,14.1,44,12,14.9,30.9,23.4,52.1,22.2a74.154,74.154,0,0,0,41.4-15.5c15.9-12.4,25.5-30.4,24.8-50.7-.6-17.3-8.5-33.1-20.4-45.1C329.5,241,313.5,232.9,295.8,231.9Z" fill="none" stroke="#315579" stroke-miterlimit="10" stroke-width="2.188"/>
                      </g>
                    </g>
                  </g>
                </g>
                <path id="Path_12" d="M340.6,298.1a44.8,44.8,0,1,0-44.8,44.8,44.79,44.79,0,0,0,44.8-44.8Z" fill="none" stroke="#315579" stroke-miterlimit="10" stroke-width="2.274"/>
                <path id="Path_13" d="M323.1,318.7c-3.9-12.8-9-20.6-14.7-20.6-4.7,0-9,5.3-12.6,14.3-3.6-9-7.9-14.3-12.6-14.3-5.7,0-10.7,7.8-14.7,20.6h-2.9l17.3-53.2,12.9,39.8,12.9-39.8L326,318.7Z" fill="#315579"/>
              </g>
            </g>
          </g>
        </g>
      </g>
    </g>
  </g>
</svg>
