<svg xmlns="http://www.w3.org/2000/svg" xmlns:xlink="http://www.w3.org/1999/xlink" width="360" height="90" viewBox="0 0 360 90">
  <defs>
    <clipPath id="clip-path">
      <rect id="Retângulo_9620" data-name="Retângulo 9620" width="355.848" height="86.233" transform="translate(0 0)" fill="#fff"/>
    </clipPath>
    <clipPath id="clip-razr-50-ultra-ROW-lockup-logo-white-">
      <rect width="360" height="90"/>
    </clipPath>
  </defs>
  <g id="razr-50-ultra-ROW-lockup-logo-white-" clip-path="url(#clip-razr-50-ultra-ROW-lockup-logo-white-)">
    <g id="Grupo_9452" data-name="Grupo 9452" transform="translate(11772 3918)">
      <g id="Grupo_9451" data-name="Grupo 9451" transform="translate(-11770 -3916)">
        <g id="Grupo_9450" data-name="Grupo 9450" clip-path="url(#clip-path)">
          <path id="Caminho_16839" data-name="Caminho 16839" d="M43.347,0A43.117,43.117,0,1,0,86.71,43.116,43.224,43.224,0,0,0,43.347,0M70.613,63.569c-3.931-12.715-8.948-20.453-14.672-20.453-4.658,0-8.982,5.218-12.567,14.151C39.8,48.344,35.467,43.116,30.762,43.116c-5.665,0-10.685,7.719-14.632,20.453H13.213l17.254-52.81L43.355,50.208,56.244,10.759,73.5,63.569Z" fill="#fff"/>
          <path id="Caminho_16840" data-name="Caminho 16840" d="M258.862,23.4a3.648,3.648,0,0,0-3.357-2.233c-9.254,0-16.018,3.154-20.1,9.369-2.621,3.99-3.831,8.649-3.807,14.663.008,1.64,0,6.061-.012,9.771v.777c-.006,2.267-.011,4.2-.01,5a3.65,3.65,0,1,0,7.3.028c0-.875.005-2.946.01-5.339v-.453c.009-3.72.02-8.156.013-9.818-.017-4.515.811-7.89,2.607-10.624,2.6-3.96,6.975-5.944,13.368-6.067l.2,0c.139,0,.279-.007.424-.007a3.658,3.658,0,0,0,3.653-3.65A3.61,3.61,0,0,0,258.862,23.4Z" fill="#fff"/>
          <path id="Caminho_16841" data-name="Caminho 16841" d="M141.06,23.4a3.647,3.647,0,0,0-3.357-2.233c-9.254,0-16.018,3.154-20.1,9.369-2.622,3.99-3.832,8.649-3.807,14.663.007,1.64,0,6.061-.013,9.771v.777c-.006,2.267-.01,4.2-.01,5a3.651,3.651,0,1,0,7.3.028c0-.875,0-2.946.009-5.339v-.453c.009-3.72.02-8.156.013-9.818-.017-4.515.811-7.89,2.608-10.624,2.6-3.96,6.975-5.944,13.367-6.067l.2,0c.14,0,.28-.007.424-.007a3.651,3.651,0,0,0,3.367-5.067Z" fill="#fff"/>
          <path id="Caminho_16842" data-name="Caminho 16842" d="M163.508,21.162a21.62,21.62,0,1,0,0,43.239h17.969a3.654,3.654,0,0,0,3.65-3.65V42.782a21.644,21.644,0,0,0-21.619-21.62m14.318,21.652-.008,11.723a2.566,2.566,0,0,1-.748,1.827,2.5,2.5,0,0,1-1.78.737H163.513a14.376,14.376,0,0,1-10.477-4.56,14.2,14.2,0,0,1-3.813-10.781,14.32,14.32,0,0,1,28.6,1.022Z" fill="#fff"/>
          <path id="Caminho_16843" data-name="Caminho 16843" d="M206.454,51.414l1.212-1.606c5.1-6.754,17.037-22.57,17.217-22.811a3.612,3.612,0,0,0,.705-2.148,3.654,3.654,0,0,0-3.65-3.651H195.36a3.656,3.656,0,0,0-3.651,3.651,3.607,3.607,0,0,0,.3,1.449,3.653,3.653,0,0,0,3.348,2.2H209.2v0h3.977a.708.708,0,0,1,.56,1.14l-3.512,4.547c-7.448,9.88-18.21,24.183-18.665,24.858a3.654,3.654,0,0,0,3.226,5.362h27.107a3.669,3.669,0,0,0,3.663-3.65,3.66,3.66,0,0,0-3.65-3.65H203.516a.708.708,0,0,1-.561-1.139Z" fill="#fff"/>
          <path id="Caminho_16844" data-name="Caminho 16844" d="M280.958,37.3a6.836,6.836,0,0,1-4.639-2.265l-.37-.357-1.971,2.16.337.338a9.42,9.42,0,0,0,6.618,2.928c3.982,0,6.763-2.575,6.763-6.313,0-3.451-2.7-5.862-6.563-5.862a8.019,8.019,0,0,0-2.9.514l.291-4.349h8.4V21.261H275.851l-.545,9.3,1.817,1.2.263-.142a7.1,7.1,0,0,1,3.446-.942c2.272,0,3.859,1.309,3.859,3.233a3.416,3.416,0,0,1-3.733,3.384" fill="#fff"/>
          <path id="Caminho_16845" data-name="Caminho 16845" d="M305.032,30.48c0-5.516-3.309-9.52-7.866-9.52-4.528,0-7.942,4.115-7.942,9.57v.05c0,5.516,3.319,9.52,7.891,9.52,4.514,0,7.917-4.114,7.917-9.62m-7.917-6.716c3.158,0,4.862,3.485,4.862,6.766v.05c0,3.337-1.652,6.716-4.811,6.716-3.175,0-4.888-3.486-4.888-6.816s1.661-6.716,4.837-6.716" fill="#fff"/>
          <path id="Caminho_16846" data-name="Caminho 16846" d="M286.333,56.02c0,3.409-1.7,5.287-4.786,5.287-3.135,0-4.861-1.923-4.861-5.413V45.323h-2.98v10.7c0,5.006,2.985,8.116,7.791,8.116,4.894,0,7.815-3.09,7.815-8.266V45.323h-2.979Z" fill="#fff"/>
          <path id="Caminho_16847" data-name="Caminho 16847" d="M295.474,45.323h-2.979V63.861h12.85V61.032h-9.871Z" fill="#fff"/>
          <path id="Caminho_16848" data-name="Caminho 16848" d="M303.717,48.152h5.912V63.861h2.98V48.152h5.913V45.323h-14.8Z" fill="#fff"/>
          <path id="Caminho_16849" data-name="Caminho 16849" d="M347.4,45.2h-2.5l-8.38,18.518-5.414-7.2a5.488,5.488,0,0,0,4.4-5.477,5.321,5.321,0,0,0-1.5-3.811,7.45,7.45,0,0,0-5.34-1.9h-8.041V63.861h2.98V57.046h4.259l5.086,6.815h6.635l2.079-4.635h8.9l2.054,4.635h3.231Zm-23.8,2.955h4.912c2.532,0,3.984,1.078,3.984,3.007,0,1.889-1.574,3.108-4.01,3.108h-4.886Zm25.735,8.295h-6.449l3.235-7.219Z" fill="#fff"/>
        </g>
      </g>
    </g>
  </g>
</svg>
